<svg width="25" height="34" viewBox="0 0 25 34" fill="none" xmlns="http://www.w3.org/2000/svg">
<path d="M22.3974 24.9478C22.3818 24.9081 22.3634 24.8713 22.3421 24.8372C22.335 24.8259 22.3279 24.816 22.3194 24.806C22.3038 24.7834 22.2868 24.7607 22.2669 24.7408C22.257 24.7295 22.2471 24.7196 22.2372 24.7096C22.2173 24.6912 22.1975 24.6742 22.1762 24.6572C22.1649 24.6487 22.1549 24.6402 22.1436 24.6331C22.1167 24.6146 22.0897 24.5991 22.0614 24.5849C22.0543 24.5806 22.0472 24.5764 22.0401 24.5735C22.0032 24.5565 21.965 24.5438 21.9267 24.5324C21.9168 24.5296 21.9054 24.5282 21.8955 24.5253C21.8657 24.5182 21.8374 24.5126 21.8062 24.5097C21.792 24.5083 21.7778 24.5069 21.7636 24.5069C21.7353 24.5055 21.7069 24.5055 21.6772 24.5069C21.6658 24.5069 21.6531 24.5069 21.6417 24.5097C21.6006 24.514 21.5609 24.5197 21.5212 24.531L18.8204 25.2541L17.6961 25.5546C17.672 25.5603 17.6479 25.5631 17.6252 25.5645C17.6224 25.5645 17.6195 25.5645 17.6167 25.5645C17.6124 25.5645 17.6082 25.5631 17.6039 25.5631C17.5855 25.5631 17.5685 25.5603 17.5515 25.556C17.5444 25.5546 17.5373 25.5532 17.5302 25.5518C17.5075 25.5447 17.4848 25.5362 17.4636 25.5234L13.4712 23.2182C13.3251 23.1345 13.1734 23.0679 13.0175 23.0183C12.8828 22.9757 12.7467 22.9445 12.6092 22.9261C12.5099 22.9133 12.4093 22.9062 12.3086 22.9062C12.2079 22.9062 12.1073 22.9133 12.008 22.9261C11.8578 22.9459 11.7103 22.98 11.5657 23.0282C11.4211 23.0764 11.2807 23.1402 11.1446 23.2182L7.15222 25.5234C7.13095 25.5362 7.10827 25.5447 7.08558 25.5518C7.07849 25.5532 7.07141 25.5546 7.06573 25.556C7.04872 25.5603 7.03029 25.5617 7.01328 25.5631C7.00902 25.5631 7.00477 25.5645 7.00052 25.5645C6.99768 25.5645 6.99485 25.5645 6.99201 25.5645C6.96791 25.5645 6.94381 25.5617 6.91971 25.5546L6.14277 25.3462L3.05631 24.5197C3.02796 24.5126 2.9996 24.5069 2.97125 24.5026C2.96274 24.5026 2.95423 24.5012 2.94431 24.4998C2.92446 24.4984 2.90461 24.497 2.88618 24.4956C2.87767 24.4956 2.86917 24.4956 2.86066 24.4956C2.8238 24.4956 2.78836 24.4984 2.75291 24.5055C2.74866 24.5055 2.7444 24.5069 2.74015 24.5083C2.70613 24.5154 2.67352 24.5239 2.64091 24.5353C2.63666 24.5367 2.6324 24.5381 2.62815 24.5395C2.59554 24.5523 2.56293 24.5679 2.53174 24.5849C2.52607 24.5877 2.51898 24.592 2.51331 24.5948C2.48354 24.6132 2.45376 24.6331 2.42683 24.6558C2.42257 24.66 2.41832 24.6629 2.41407 24.6671C2.38713 24.6898 2.36303 24.7139 2.34034 24.7408C2.33893 24.7437 2.33609 24.7451 2.33467 24.7465C2.31199 24.7749 2.29072 24.8046 2.27229 24.8358C2.26804 24.8415 2.2652 24.8472 2.26095 24.8543C2.24394 24.8854 2.22834 24.9195 2.21558 24.9535C2.21275 24.9592 2.21133 24.9663 2.20991 24.9719C2.19715 25.0088 2.18723 25.0471 2.18014 25.0868C2.16596 25.1775 2.17021 25.2668 2.19148 25.3519C2.22267 25.4795 2.29214 25.5943 2.38571 25.6879C2.41832 25.7205 2.45376 25.7489 2.49063 25.7758C2.55584 25.8212 2.62815 25.8552 2.70613 25.8793C2.71463 25.8821 2.72314 25.8864 2.73165 25.8892L4.33229 26.3188L4.60167 26.3911C4.63428 26.3996 4.66405 26.4138 4.69099 26.4294C4.84836 26.53 4.87813 26.7555 4.75195 26.893C4.73069 26.9157 4.70517 26.9369 4.67539 26.954L3.5979 27.5763L3.39516 27.694C3.31434 27.7408 3.24346 27.8018 3.18391 27.8712C3.03788 28.0456 2.97266 28.2796 3.02512 28.4979C3.03505 28.5418 3.05064 28.5858 3.07049 28.6283C3.08608 28.6609 3.1031 28.6907 3.12295 28.7191C3.1428 28.7474 3.16264 28.7744 3.18533 28.7999C3.2307 28.8495 3.28174 28.892 3.33703 28.9261C3.44761 28.9941 3.57663 29.031 3.70706 29.031C3.73684 29.031 3.76661 29.0296 3.79638 29.0253C3.8857 29.014 3.97502 28.9842 4.05867 28.936L5.3786 28.1732C5.40129 28.1605 5.42539 28.1505 5.44807 28.1435C5.45232 28.1435 5.45658 28.1406 5.45941 28.1406C5.4821 28.1349 5.50478 28.1321 5.52605 28.1321C5.52747 28.1321 5.5303 28.1321 5.53172 28.1321C5.53455 28.1321 5.53739 28.1321 5.54023 28.1321C5.56007 28.1321 5.57992 28.1349 5.59977 28.1392C5.59977 28.1392 5.60119 28.1392 5.60261 28.1392C5.62246 28.1435 5.64089 28.152 5.65932 28.1605C5.66357 28.1619 5.66782 28.1647 5.67208 28.1661C5.69051 28.1746 5.70752 28.186 5.72312 28.1987C5.72453 28.2002 5.72737 28.2016 5.72879 28.2044C5.74297 28.2158 5.75572 28.2285 5.76707 28.2427C5.7699 28.2455 5.77274 28.2484 5.77557 28.2526C5.78833 28.2682 5.79826 28.2852 5.80818 28.3022C5.8096 28.3065 5.81102 28.3093 5.81244 28.3136C5.81952 28.3306 5.82661 28.3476 5.83087 28.366C5.83087 28.3689 5.83228 28.3717 5.8337 28.3745C5.83796 28.3944 5.83937 28.4157 5.84079 28.4369C5.84079 28.4412 5.84079 28.4469 5.84079 28.4511C5.84079 28.4738 5.83654 28.4965 5.83087 28.5192L5.32756 30.3949C5.29495 30.5182 5.29354 30.6458 5.32047 30.7649C5.36584 30.9648 5.48919 31.142 5.67917 31.237C5.7855 31.2895 5.89467 31.3136 5.99958 31.3136C6.31007 31.3136 6.59504 31.1066 6.67869 30.7918L7.68813 27.0263L7.71365 26.9299C7.72358 26.8902 7.74201 26.8533 7.76611 26.8221C7.79021 26.7909 7.8214 26.764 7.85684 26.7427L9.28736 25.9162C9.35116 25.8793 9.41496 25.8481 9.48018 25.8212C9.50286 25.8127 9.52555 25.807 9.54681 25.7985C9.58935 25.7829 9.6333 25.7673 9.67583 25.7559C9.70277 25.7489 9.7297 25.746 9.75664 25.7404C9.79634 25.7318 9.83462 25.7233 9.87432 25.7191C9.90267 25.7162 9.93103 25.7148 9.95938 25.7134C9.99199 25.7106 10.026 25.7077 10.0586 25.7077C10.0643 25.7077 10.0685 25.7077 10.0742 25.7077C10.0884 25.7077 10.1026 25.7092 10.1182 25.7106C10.1635 25.712 10.2103 25.7162 10.2557 25.7219C10.2741 25.7248 10.2926 25.7276 10.311 25.7304C10.3564 25.7375 10.4003 25.7474 10.4443 25.7588C10.4584 25.763 10.4726 25.7659 10.4868 25.7687C10.5435 25.7857 10.5988 25.8041 10.6527 25.8268C10.664 25.8311 10.6753 25.8368 10.6853 25.8424C10.7278 25.8609 10.7703 25.8821 10.8115 25.9048C10.827 25.9133 10.8426 25.9232 10.8582 25.9332C10.8965 25.9558 10.9334 25.98 10.9688 26.0069C10.9816 26.0154 10.9943 26.0253 11.0071 26.0338C11.0539 26.0693 11.0978 26.1075 11.1404 26.1487C11.1475 26.1558 11.1531 26.1628 11.1588 26.1685C11.1942 26.204 11.2283 26.2408 11.2595 26.2805C11.2666 26.289 11.2736 26.2975 11.2807 26.306C11.285 26.3117 11.2892 26.3188 11.2935 26.3245C11.3204 26.3599 11.346 26.3954 11.3686 26.4336C11.3771 26.4478 11.3871 26.462 11.3956 26.4762C11.4253 26.5286 11.4537 26.5811 11.4778 26.6378C11.4806 26.6435 11.4821 26.6491 11.4835 26.6548C11.5047 26.7058 11.5232 26.7583 11.5388 26.8122C11.5444 26.8306 11.5487 26.849 11.5529 26.8675C11.5643 26.9114 11.5742 26.9568 11.5813 27.0036C11.5841 27.022 11.5884 27.0419 11.5898 27.0603C11.5983 27.1241 11.6026 27.1893 11.6026 27.2574V28.909C11.6026 28.9289 11.6011 28.9502 11.5969 28.97C11.5884 29.0097 11.5728 29.0466 11.5515 29.0806C11.5402 29.0976 11.5274 29.1132 11.5132 29.1274L8.71317 31.9275C8.4523 32.1883 8.40268 32.6122 8.63519 32.8972C8.6678 32.9369 8.70325 32.9709 8.74011 33.0007C8.74294 33.0021 8.74436 33.0049 8.7472 33.0078C8.78264 33.0361 8.82234 33.0602 8.86204 33.0801C8.86629 33.0829 8.87054 33.0858 8.87621 33.0872C8.91591 33.1056 8.95561 33.1212 8.99672 33.1311C9.00239 33.1325 9.00806 33.134 9.01515 33.1354C9.05627 33.1453 9.09738 33.151 9.1385 33.1538C9.14559 33.1538 9.15126 33.1538 9.15835 33.1538C9.1867 33.1538 9.21647 33.151 9.24483 33.1496C9.26468 33.1481 9.28453 33.1467 9.30296 33.1439C9.3299 33.1396 9.35683 33.1311 9.38519 33.1226C9.40362 33.117 9.42063 33.1141 9.43906 33.107C9.46884 33.0957 9.49577 33.0801 9.52413 33.0645C9.53831 33.0574 9.55248 33.0517 9.56666 33.0418C9.60778 33.0149 9.64606 32.9851 9.6815 32.9497L11.078 31.5532C11.0993 31.5319 11.1234 31.5149 11.1475 31.5021C11.1531 31.4993 11.1588 31.4965 11.1645 31.4936C11.1886 31.4823 11.2141 31.4724 11.2396 31.4681C11.2425 31.4681 11.2453 31.4681 11.2481 31.4681C11.2623 31.4653 11.2779 31.4638 11.2935 31.4638C11.302 31.4638 11.3105 31.4653 11.319 31.4667C11.3261 31.4667 11.3318 31.4667 11.3389 31.4681C11.3644 31.4724 11.3885 31.478 11.4126 31.4879C11.4154 31.4879 11.4183 31.4908 11.4211 31.4922C11.4424 31.5021 11.4622 31.5135 11.4806 31.5262C11.4863 31.5305 11.4906 31.5333 11.4962 31.5376C11.5161 31.5546 11.5345 31.573 11.5501 31.5943C11.5501 31.5957 11.5515 31.5971 11.5529 31.5985C11.5671 31.6184 11.577 31.6411 11.5856 31.6652C11.5884 31.6723 11.5898 31.6779 11.5926 31.685C11.5997 31.712 11.6054 31.7403 11.6054 31.7715V33.2559C11.6054 33.6245 11.8705 33.9591 12.2363 33.996C12.2618 33.9988 12.2859 33.9988 12.31 33.9988C12.3554 33.9988 12.3979 33.9931 12.4405 33.986C12.4447 33.986 12.449 33.986 12.4532 33.9832C12.4943 33.9747 12.5326 33.9619 12.5709 33.9463C12.5766 33.9435 12.5822 33.9421 12.5865 33.9393C12.6234 33.9237 12.6574 33.9038 12.6914 33.8825C12.6971 33.8797 12.7013 33.8755 12.707 33.8726C12.7396 33.8499 12.7694 33.8258 12.7977 33.7975C12.802 33.7932 12.8062 33.789 12.8119 33.7833C12.8389 33.7549 12.8644 33.7252 12.8871 33.6926C12.8899 33.6883 12.8941 33.6826 12.897 33.677C12.9182 33.6429 12.9381 33.6089 12.9537 33.5721C12.9551 33.5678 12.9579 33.5621 12.9594 33.5579C12.975 33.5196 12.9877 33.4799 12.9962 33.4374C12.9962 33.4345 12.9962 33.4303 12.9976 33.4274C13.0061 33.3835 13.0118 33.3381 13.0118 33.2928V31.7687C13.0118 31.7375 13.0175 31.7091 13.0246 31.6822C13.026 31.6751 13.0288 31.668 13.0317 31.6623C13.0402 31.6382 13.0515 31.6155 13.0643 31.5957C13.0643 31.5943 13.0657 31.5929 13.0671 31.5914C13.0827 31.5702 13.1011 31.5517 13.121 31.5347C13.1267 31.5305 13.1309 31.5262 13.1366 31.5234C13.155 31.5092 13.1749 31.4979 13.1961 31.4894C13.199 31.4894 13.2018 31.4865 13.2046 31.4851C13.2287 31.4752 13.2528 31.4695 13.2784 31.4653C13.2854 31.4653 13.2911 31.4653 13.2982 31.4638C13.3067 31.4638 13.3152 31.461 13.3237 31.461C13.3379 31.461 13.3535 31.4624 13.3691 31.4653C13.3719 31.4653 13.3748 31.4653 13.3776 31.4653C13.4031 31.4695 13.4286 31.4794 13.4527 31.4908C13.4584 31.4936 13.4641 31.4965 13.4698 31.4993C13.4939 31.5135 13.518 31.5291 13.5392 31.5503L14.9357 32.9468C14.9697 32.9808 15.0066 33.0106 15.0463 33.0376C15.1243 33.0886 15.2108 33.124 15.2987 33.1411C15.3426 33.1496 15.388 33.1538 15.4333 33.1538C15.5936 33.1538 15.7538 33.0999 15.8828 32.9908C16.2074 32.7214 16.1918 32.2124 15.8941 31.9147L13.1026 29.1231C13.0444 29.065 13.0118 28.987 13.0118 28.9048V27.2531C13.0118 27.1865 13.0175 27.1212 13.0246 27.056C13.0274 27.0362 13.0302 27.0178 13.0331 26.9993C13.0402 26.9525 13.0501 26.9086 13.0614 26.8632C13.0657 26.8448 13.0714 26.8264 13.0756 26.8079C13.0912 26.754 13.1096 26.7016 13.1309 26.652C13.1337 26.6463 13.1352 26.6406 13.138 26.635C13.1621 26.5797 13.1905 26.5258 13.2202 26.4747C13.2287 26.4592 13.2387 26.445 13.2486 26.4308C13.2727 26.3939 13.2968 26.3571 13.3237 26.323C13.3322 26.3117 13.3393 26.3004 13.3478 26.2904C13.3507 26.2862 13.3549 26.2834 13.3577 26.2791C13.3889 26.2408 13.423 26.204 13.457 26.1685C13.4641 26.1614 13.4698 26.1543 13.4768 26.1472C13.5194 26.1061 13.5633 26.0679 13.6101 26.0324C13.6229 26.0225 13.6356 26.014 13.6498 26.0041C13.6853 25.9785 13.7221 25.9544 13.759 25.9317C13.7746 25.9218 13.7916 25.9119 13.8072 25.9034C13.8483 25.8807 13.8894 25.8594 13.9319 25.841C13.9433 25.8353 13.9546 25.8297 13.966 25.8254C14.0198 25.8027 14.0751 25.7843 14.1318 25.7673C14.146 25.763 14.1602 25.7602 14.1744 25.7559C14.2183 25.7446 14.2623 25.7347 14.3062 25.7276C14.3247 25.7248 14.3431 25.7219 14.3629 25.7191C14.4083 25.7134 14.4537 25.7092 14.5005 25.7077C14.5146 25.7077 14.5288 25.7063 14.5444 25.7049C14.5501 25.7049 14.5543 25.7049 14.56 25.7049C14.5926 25.7049 14.6252 25.7092 14.6593 25.7106C14.6876 25.712 14.716 25.712 14.7443 25.7162C14.784 25.7205 14.8237 25.7304 14.8634 25.7389C14.8903 25.7446 14.9159 25.7474 14.9428 25.7545C14.9868 25.7659 15.0307 25.7815 15.0732 25.7985C15.0945 25.807 15.1172 25.8112 15.1385 25.8212C15.2037 25.8481 15.2675 25.8793 15.3313 25.9162L16.7618 26.7427C16.8327 26.7838 16.8837 26.8505 16.905 26.9299L16.9107 26.9497L17.9414 30.7932C18.0264 31.108 18.31 31.315 18.6205 31.315C18.7509 31.315 18.8856 31.2795 19.0089 31.1987C19.0387 31.1789 19.0671 31.1562 19.0926 31.1307C19.2471 30.9776 19.3308 30.7238 19.3109 30.5026C19.3081 30.4657 19.301 30.4303 19.2925 30.3963L18.7892 28.5206C18.7835 28.4979 18.7807 28.4738 18.7793 28.4525C18.7793 28.4483 18.7793 28.4426 18.7793 28.4383C18.7793 28.4171 18.7807 28.3958 18.7864 28.376C18.7864 28.3731 18.7878 28.3703 18.7892 28.3675C18.7934 28.349 18.8005 28.332 18.8076 28.315C18.809 28.3107 18.8104 28.3079 18.8119 28.3037C18.8204 28.2852 18.8317 28.2682 18.8445 28.2526C18.8473 28.2498 18.8501 28.2469 18.853 28.2427C18.8643 28.2285 18.8785 28.2158 18.8927 28.2044C18.8941 28.203 18.8969 28.2016 18.8984 28.2002C18.9139 28.1874 18.931 28.1775 18.9494 28.1676C18.9536 28.1661 18.9579 28.1633 18.9622 28.1619C18.9806 28.1534 18.999 28.1463 19.0189 28.1406C19.0189 28.1406 19.0203 28.1406 19.0217 28.1406C19.0415 28.1364 19.0614 28.1335 19.0812 28.1335C19.0841 28.1335 19.0869 28.1335 19.0898 28.1335C19.0912 28.1335 19.094 28.1335 19.0954 28.1335C19.1181 28.1335 19.1394 28.1364 19.1621 28.142C19.1663 28.142 19.1706 28.1449 19.1734 28.1449C19.1975 28.152 19.2202 28.1605 19.2429 28.1746L20.5628 28.9374C20.6734 29.0012 20.7953 29.0324 20.9144 29.0324C20.9796 29.0324 21.0448 29.0239 21.1072 29.0055C21.1696 28.9884 21.2291 28.9615 21.2844 28.9275C21.3681 28.8764 21.4418 28.807 21.4985 28.7219C21.5184 28.6935 21.5354 28.6624 21.551 28.6312C21.6318 28.4624 21.6318 28.2753 21.5722 28.1066C21.5255 27.9762 21.439 27.8571 21.327 27.7663C21.2958 27.7408 21.2632 27.7167 21.2277 27.6954L19.9475 26.9568C19.7986 26.8717 19.7618 26.7002 19.8199 26.5669C19.8539 26.4861 19.9234 26.4195 20.0226 26.3939L20.7414 26.2011L21.9309 25.8821C21.9565 25.875 21.9806 25.8679 22.0032 25.858C22.0741 25.8311 22.1379 25.7928 22.1946 25.7474C22.2698 25.6865 22.3307 25.6099 22.3747 25.5249C22.396 25.4823 22.4144 25.4369 22.4272 25.3916C22.4399 25.3448 22.4484 25.298 22.4513 25.2484C22.4583 25.1506 22.4442 25.0499 22.4059 24.9507L22.3974 24.9478Z" fill="#FB7712"/>
<path d="M23.634 6.4104L13.3156 0.27859C12.6904 -0.0928632 11.912 -0.0928632 11.2868 0.27859L0.971165 6.4104C0.370035 6.76767 0 7.41701 0 8.11596V22.0639L2.98155 22.8635C4.18664 23.1867 5.47113 23.018 6.55146 22.3942L10.2433 20.2633C10.8685 19.9032 11.5817 19.7104 12.3019 19.7104C13.0221 19.7104 13.7352 19.9018 14.3605 20.2633L18.0495 22.3942C19.1298 23.018 20.4143 23.1867 21.6194 22.8635L24.6038 22.0639V8.11738C24.6038 7.41701 24.2352 6.76909 23.6326 6.41182L23.634 6.4104ZM11.7433 16.7133C11.7433 17.1017 11.4286 17.415 11.0415 17.415H7.58076C7.19229 17.415 6.87897 17.1003 6.87897 16.7133V13.2525C6.87897 12.864 7.19371 12.5507 7.58076 12.5507H11.0415C11.43 12.5507 11.7433 12.8655 11.7433 13.2525V16.7133ZM11.7433 10.8522C11.7433 11.2407 11.4286 11.554 11.0415 11.554H7.58076C7.19229 11.554 6.87897 11.2393 6.87897 10.8522V7.39149C6.87897 7.00302 7.19371 6.6897 7.58076 6.6897H11.0415C11.43 6.6897 11.7433 7.00444 11.7433 7.39149V10.8522ZM17.6979 16.7133C17.6979 17.1017 17.3831 17.415 16.9961 17.415H13.5353C13.1469 17.415 12.8336 17.1003 12.8336 16.7133V13.2525C12.8336 12.864 13.1483 12.5507 13.5353 12.5507H16.9961C17.3846 12.5507 17.6979 12.8655 17.6979 13.2525V16.7133ZM17.7503 10.3645C17.7333 10.3986 17.7149 10.4297 17.6979 10.4624C17.4299 10.9699 17.0783 11.3229 16.6955 11.5554C16.3439 11.7695 15.9668 11.8844 15.6053 11.9269C15.8505 11.8886 16.1057 11.7851 16.3042 11.5554C16.3964 11.4477 16.4772 11.3144 16.5382 11.1429C17.1279 9.48126 15.2296 8.38108 15.2296 8.38108C15.5117 9.42455 14.5136 9.42172 14.1223 10.1646C13.8671 10.6481 13.9819 11.201 14.2839 11.5554C14.4455 11.7454 14.6596 11.8787 14.9021 11.9127C14.9871 11.9241 15.1105 11.9411 15.2508 11.9467C15.1034 11.9467 14.9602 11.9354 14.8269 11.9156C14.5235 11.8688 14.179 11.7539 13.8572 11.5569C13.4219 11.2903 13.0278 10.8707 12.8293 10.2582C12.8038 10.1774 12.7797 10.0937 12.7612 10.0073C12.645 9.47276 12.6904 9.00348 12.8293 8.59091C13.1072 7.76294 13.765 7.15756 14.2697 6.69253C14.3747 6.59612 14.4725 6.50539 14.559 6.42174C15.7598 5.24358 15.0297 4.4071 15.0297 4.4071C15.0297 4.4071 16.7735 5.03375 16.6601 6.64575C16.6601 6.66134 16.6573 6.67694 16.6558 6.69253C16.6133 7.12637 16.395 7.76436 16.7607 8.16558C17.1733 8.61927 17.5235 8.29743 17.6965 8.06634C17.7702 7.9671 17.8113 7.88487 17.8113 7.88487C17.8113 7.88487 18.438 8.95244 17.7489 10.3674L17.7503 10.3645Z" fill="#0B704E"/>
</svg>
