<svg width="34" height="47" viewBox="0 0 34 47" fill="none" xmlns="http://www.w3.org/2000/svg">
<path d="M30.9495 34.4771C30.928 34.4222 30.9025 34.3713 30.8731 34.3243C30.8633 34.3086 30.8535 34.2949 30.8418 34.2812C30.8202 34.2498 30.7967 34.2185 30.7693 34.191C30.7556 34.1754 30.7418 34.1616 30.7281 34.1479C30.7007 34.1225 30.6733 34.0989 30.6439 34.0754C30.6282 34.0637 30.6145 34.0519 30.5988 34.0421C30.5616 34.0167 30.5244 33.9951 30.4852 33.9755C30.4754 33.9696 30.4656 33.9638 30.4558 33.9598C30.4049 33.9363 30.352 33.9187 30.2991 33.903C30.2854 33.8991 30.2697 33.8972 30.256 33.8932C30.2148 33.8834 30.1756 33.8756 30.1325 33.8717C30.1129 33.8697 30.0934 33.8678 30.0738 33.8678C30.0346 33.8658 29.9954 33.8658 29.9542 33.8678C29.9386 33.8678 29.9209 33.8678 29.9053 33.8717C29.8485 33.8776 29.7936 33.8854 29.7387 33.9011L26.0065 34.9003L24.4528 35.3156C24.4195 35.3234 24.3862 35.3274 24.3548 35.3293C24.3509 35.3293 24.347 35.3293 24.3431 35.3293C24.3372 35.3293 24.3313 35.3274 24.3255 35.3274C24.3 35.3274 24.2765 35.3235 24.253 35.3176C24.2432 35.3156 24.2334 35.3137 24.2236 35.3117C24.1922 35.3019 24.1609 35.2901 24.1315 35.2725L18.6144 32.0868C18.4126 31.9713 18.203 31.8792 17.9874 31.8106C17.8013 31.7518 17.6132 31.7087 17.4232 31.6833C17.286 31.6656 17.1469 31.6558 17.0078 31.6558C16.8687 31.6558 16.7296 31.6656 16.5925 31.6833C16.3848 31.7107 16.1811 31.7577 15.9812 31.8243C15.7814 31.8909 15.5874 31.9791 15.3993 32.0868L9.88222 35.2725C9.85283 35.2901 9.82148 35.3019 9.79014 35.3117C9.78034 35.3137 9.77054 35.3156 9.76271 35.3176C9.7392 35.3235 9.71373 35.3254 9.69022 35.3274C9.68434 35.3274 9.67846 35.3293 9.67258 35.3293C9.66867 35.3293 9.66475 35.3293 9.66083 35.3293C9.62752 35.3293 9.59422 35.3254 9.56091 35.3156L8.48727 35.0276L4.22208 33.8854C4.1829 33.8756 4.14371 33.8678 4.10453 33.8619C4.09278 33.8619 4.08102 33.8599 4.06731 33.858C4.03988 33.856 4.01245 33.854 3.98698 33.8521C3.97522 33.8521 3.96347 33.8521 3.95171 33.8521C3.90077 33.8521 3.85179 33.856 3.80281 33.8658C3.79694 33.8658 3.79106 33.8678 3.78518 33.8697C3.73816 33.8795 3.6931 33.8913 3.64804 33.9069C3.64216 33.9089 3.63628 33.9109 3.6304 33.9128C3.58534 33.9305 3.54028 33.952 3.49718 33.9755C3.48934 33.9794 3.47954 33.9853 3.47171 33.9892C3.43056 34.0147 3.38942 34.0421 3.3522 34.0735C3.34632 34.0794 3.34044 34.0833 3.33456 34.0892C3.29734 34.1205 3.26403 34.1538 3.23268 34.191C3.23073 34.1949 3.22681 34.1969 3.22485 34.1989C3.1935 34.2381 3.16411 34.2792 3.13864 34.3223C3.13277 34.3301 3.12885 34.338 3.12297 34.3478C3.09946 34.3909 3.07791 34.4379 3.06028 34.4849C3.05636 34.4927 3.0544 34.5025 3.05244 34.5104C3.03481 34.5613 3.02109 34.6142 3.0113 34.6691C2.9917 34.7945 2.99758 34.9179 3.02697 35.0354C3.07007 35.2118 3.16607 35.3705 3.29538 35.4998C3.34044 35.5448 3.38942 35.584 3.44036 35.6212C3.53048 35.6839 3.6304 35.731 3.73816 35.7643C3.74991 35.7682 3.76167 35.7741 3.77342 35.778L5.98536 36.3716L6.35761 36.4715C6.40267 36.4833 6.44382 36.5029 6.48104 36.5244C6.69851 36.6635 6.73966 36.9751 6.56529 37.1651C6.5359 37.1964 6.50064 37.2258 6.45949 37.2493L4.9705 38.1094L4.69033 38.2721C4.57866 38.3367 4.4807 38.421 4.39841 38.517C4.19661 38.7579 4.10649 39.0812 4.17898 39.3829C4.19269 39.4437 4.21425 39.5044 4.24167 39.5632C4.26323 39.6082 4.28674 39.6494 4.31416 39.6886C4.34159 39.7277 4.36902 39.765 4.40037 39.8002C4.46306 39.8688 4.5336 39.9276 4.61 39.9746C4.76282 40.0686 4.94111 40.1196 5.12136 40.1196C5.1625 40.1196 5.20364 40.1176 5.24479 40.1117C5.36822 40.0961 5.49165 40.0549 5.60724 39.9883L7.43126 38.9343C7.4626 38.9166 7.49591 38.9029 7.52726 38.8931C7.53313 38.8931 7.53901 38.8892 7.54293 38.8892C7.57428 38.8814 7.60563 38.8774 7.63501 38.8774C7.63697 38.8774 7.64089 38.8774 7.64285 38.8774C7.64677 38.8774 7.65069 38.8774 7.65461 38.8774C7.68203 38.8774 7.70946 38.8814 7.73689 38.8872C7.73689 38.8872 7.73885 38.8872 7.74081 38.8872C7.76824 38.8931 7.79371 38.9049 7.81918 38.9166C7.82506 38.9186 7.83093 38.9225 7.83681 38.9245C7.86228 38.9362 7.88579 38.9519 7.90734 38.9695C7.9093 38.9715 7.91322 38.9734 7.91518 38.9774C7.93477 38.993 7.9524 39.0107 7.96808 39.0303C7.972 39.0342 7.97591 39.0381 7.97983 39.044C7.99747 39.0655 8.01118 39.089 8.02489 39.1125C8.02685 39.1184 8.02881 39.1223 8.03077 39.1282C8.04057 39.1517 8.05036 39.1752 8.05624 39.2007C8.05624 39.2046 8.0582 39.2085 8.06016 39.2125C8.06604 39.2399 8.068 39.2693 8.06996 39.2987C8.06996 39.3045 8.06996 39.3124 8.06996 39.3183C8.06996 39.3496 8.06408 39.381 8.05624 39.4123L7.36072 42.0043C7.31566 42.1748 7.3137 42.3511 7.35093 42.5157C7.41362 42.7919 7.58407 43.0368 7.84661 43.1681C7.99355 43.2406 8.14441 43.2739 8.28939 43.2739C8.71845 43.2739 9.11225 42.9878 9.22784 42.5529L10.6228 37.3493L10.6581 37.216C10.6718 37.1612 10.6972 37.1102 10.7306 37.0671C10.7639 37.024 10.807 36.9868 10.8559 36.9574L12.8328 35.8152C12.9209 35.7643 13.0091 35.7212 13.0992 35.6839C13.1306 35.6722 13.1619 35.6644 13.1913 35.6526C13.2501 35.631 13.3108 35.6095 13.3696 35.5938C13.4068 35.584 13.444 35.5801 13.4813 35.5723C13.5361 35.5605 13.589 35.5488 13.6439 35.5429C13.6831 35.539 13.7223 35.537 13.7614 35.535C13.8065 35.5311 13.8535 35.5272 13.8986 35.5272C13.9064 35.5272 13.9123 35.5272 13.9201 35.5272C13.9397 35.5272 13.9593 35.5292 13.9809 35.5311C14.0436 35.5331 14.1082 35.539 14.1709 35.5468C14.1964 35.5507 14.2219 35.5546 14.2473 35.5586C14.31 35.5683 14.3708 35.5821 14.4315 35.5977C14.4511 35.6036 14.4707 35.6075 14.4903 35.6115C14.5686 35.635 14.645 35.6604 14.7195 35.6918C14.7352 35.6977 14.7508 35.7055 14.7646 35.7133C14.8233 35.7388 14.8821 35.7682 14.9389 35.7995C14.9605 35.8113 14.982 35.825 15.0036 35.8387C15.0565 35.8701 15.1074 35.9034 15.1564 35.9406C15.174 35.9524 15.1917 35.9661 15.2093 35.9778C15.2739 36.0268 15.3347 36.0797 15.3935 36.1365C15.4033 36.1463 15.4111 36.1561 15.4189 36.1639C15.4679 36.2129 15.5149 36.2639 15.558 36.3187C15.5678 36.3305 15.5776 36.3422 15.5874 36.354C15.5933 36.3618 15.5992 36.3716 15.6051 36.3795C15.6423 36.4284 15.6775 36.4774 15.7089 36.5303C15.7206 36.5499 15.7344 36.5695 15.7461 36.5891C15.7873 36.6616 15.8264 36.7341 15.8597 36.8124C15.8637 36.8203 15.8656 36.8281 15.8676 36.836C15.897 36.9065 15.9224 36.979 15.944 37.0534C15.9518 37.0789 15.9577 37.1044 15.9636 37.1298C15.9793 37.1906 15.993 37.2533 16.0028 37.3179C16.0067 37.3434 16.0126 37.3708 16.0145 37.3963C16.0263 37.4845 16.0322 37.5746 16.0322 37.6686V39.9511C16.0322 39.9785 16.0302 40.0079 16.0243 40.0353C16.0126 40.0902 15.991 40.1411 15.9616 40.1882C15.946 40.2117 15.9283 40.2332 15.9087 40.2528L12.0393 44.1222C11.6788 44.4827 11.6102 45.0685 11.9315 45.4623C11.9766 45.5172 12.0256 45.5642 12.0765 45.6053C12.0804 45.6073 12.0824 45.6112 12.0863 45.6151C12.1353 45.6543 12.1902 45.6876 12.245 45.7151C12.2509 45.719 12.2568 45.7229 12.2646 45.7249C12.3195 45.7503 12.3743 45.7719 12.4311 45.7856C12.439 45.7876 12.4468 45.7895 12.4566 45.7915C12.5134 45.8052 12.5702 45.813 12.6271 45.8169C12.6369 45.8169 12.6447 45.8169 12.6545 45.8169C12.6937 45.8169 12.7348 45.813 12.774 45.8111C12.8014 45.8091 12.8289 45.8071 12.8543 45.8032C12.8916 45.7973 12.9288 45.7856 12.968 45.7738C12.9934 45.766 13.0169 45.7621 13.0424 45.7523C13.0836 45.7366 13.1208 45.7151 13.16 45.6935C13.1796 45.6837 13.1991 45.6759 13.2187 45.6622C13.2756 45.6249 13.3285 45.5838 13.3774 45.5348L15.3072 43.605C15.3366 43.5756 15.3699 43.5521 15.4033 43.5345C15.4111 43.5306 15.4189 43.5266 15.4268 43.5227C15.4601 43.507 15.4953 43.4933 15.5306 43.4874C15.5345 43.4874 15.5384 43.4874 15.5424 43.4874C15.5619 43.4835 15.5835 43.4816 15.6051 43.4816C15.6168 43.4816 15.6286 43.4835 15.6403 43.4855C15.6501 43.4855 15.6579 43.4855 15.6677 43.4874C15.703 43.4933 15.7363 43.5012 15.7696 43.5149C15.7735 43.5149 15.7775 43.5188 15.7814 43.5208C15.8108 43.5345 15.8382 43.5501 15.8637 43.5678C15.8715 43.5737 15.8774 43.5776 15.8852 43.5834C15.9126 43.607 15.9381 43.6324 15.9597 43.6618C15.9597 43.6638 15.9616 43.6657 15.9636 43.6677C15.9832 43.6951 15.9969 43.7265 16.0086 43.7598C16.0126 43.7696 16.0145 43.7774 16.0184 43.7872C16.0282 43.8244 16.0361 43.8636 16.0361 43.9067V45.958C16.0361 46.4674 16.4024 46.9298 16.9079 46.9807C16.9432 46.9846 16.9765 46.9846 17.0098 46.9846C17.0725 46.9846 17.1313 46.9768 17.19 46.967C17.1959 46.967 17.2018 46.967 17.2077 46.9631C17.2645 46.9513 17.3174 46.9337 17.3703 46.9121C17.3781 46.9082 17.386 46.9063 17.3918 46.9023C17.4428 46.8808 17.4898 46.8534 17.5368 46.824C17.5447 46.8201 17.5505 46.8142 17.5584 46.8103C17.6034 46.7789 17.6446 46.7456 17.6838 46.7064C17.6896 46.7005 17.6955 46.6947 17.7034 46.6868C17.7406 46.6476 17.7758 46.6065 17.8072 46.5614C17.8111 46.5556 17.817 46.5477 17.8209 46.5399C17.8503 46.4929 17.8777 46.4458 17.8993 46.3949C17.9012 46.389 17.9052 46.3812 17.9071 46.3753C17.9287 46.3224 17.9463 46.2676 17.9581 46.2088C17.9581 46.2049 17.9581 46.199 17.96 46.1951C17.9718 46.1343 17.9796 46.0716 17.9796 46.0089V43.9028C17.9796 43.8597 17.9874 43.8205 17.9972 43.7833C17.9992 43.7735 18.0031 43.7637 18.007 43.7559C18.0188 43.7226 18.0345 43.6912 18.0521 43.6638C18.0521 43.6618 18.0541 43.6599 18.056 43.6579C18.0776 43.6285 18.103 43.603 18.1305 43.5795C18.1383 43.5737 18.1442 43.5678 18.152 43.5639C18.1775 43.5443 18.2049 43.5286 18.2343 43.5168C18.2382 43.5168 18.2421 43.5129 18.2461 43.511C18.2794 43.4972 18.3127 43.4894 18.3479 43.4835C18.3577 43.4835 18.3656 43.4835 18.3754 43.4816C18.3871 43.4816 18.3989 43.4777 18.4106 43.4777C18.4302 43.4777 18.4518 43.4796 18.4733 43.4835C18.4772 43.4835 18.4812 43.4835 18.4851 43.4835C18.5203 43.4894 18.5556 43.5031 18.5889 43.5188C18.5968 43.5227 18.6046 43.5266 18.6124 43.5305C18.6457 43.5501 18.679 43.5717 18.7084 43.6011L20.6382 45.5309C20.6853 45.5779 20.7362 45.6191 20.7911 45.6563C20.8988 45.7268 21.0183 45.7758 21.1398 45.7993C21.2005 45.8111 21.2632 45.8169 21.3259 45.8169C21.5473 45.8169 21.7687 45.7425 21.947 45.5916C22.3956 45.2194 22.3741 44.516 21.9627 44.1046L18.105 40.2469C18.0247 40.1666 17.9796 40.0588 17.9796 39.9452V37.6627C17.9796 37.5707 17.9874 37.4805 17.9972 37.3904C18.0012 37.363 18.0051 37.3375 18.009 37.312C18.0188 37.2474 18.0325 37.1867 18.0482 37.124C18.0541 37.0985 18.0619 37.073 18.0678 37.0475C18.0893 36.9731 18.1148 36.9006 18.1442 36.832C18.1481 36.8242 18.1501 36.8164 18.154 36.8085C18.1873 36.7321 18.2265 36.6577 18.2676 36.5871C18.2794 36.5656 18.2931 36.546 18.3068 36.5264C18.3401 36.4755 18.3734 36.4245 18.4106 36.3775C18.4224 36.3618 18.4322 36.3462 18.4439 36.3324C18.4479 36.3266 18.4537 36.3226 18.4576 36.3168C18.5008 36.2639 18.5478 36.2129 18.5948 36.1639C18.6046 36.1542 18.6124 36.1444 18.6222 36.1346C18.681 36.0777 18.7417 36.0248 18.8064 35.9759C18.824 35.9622 18.8417 35.9504 18.8612 35.9367C18.9102 35.9014 18.9612 35.8681 19.0121 35.8368C19.0337 35.823 19.0572 35.8093 19.0787 35.7976C19.1355 35.7662 19.1924 35.7368 19.2511 35.7114C19.2668 35.7035 19.2825 35.6957 19.2981 35.6898C19.3726 35.6585 19.449 35.633 19.5274 35.6095C19.547 35.6036 19.5666 35.5997 19.5861 35.5938C19.6469 35.5781 19.7076 35.5644 19.7684 35.5546C19.7938 35.5507 19.8193 35.5468 19.8467 35.5429C19.9094 35.535 19.9721 35.5292 20.0368 35.5272C20.0564 35.5272 20.076 35.5252 20.0975 35.5233C20.1053 35.5233 20.1112 35.5233 20.1191 35.5233C20.1641 35.5233 20.2092 35.5292 20.2562 35.5311C20.2954 35.5331 20.3346 35.5331 20.3737 35.539C20.4286 35.5448 20.4835 35.5586 20.5383 35.5703C20.5755 35.5781 20.6108 35.5821 20.648 35.5919C20.7088 35.6075 20.7695 35.6291 20.8283 35.6526C20.8577 35.6644 20.889 35.6702 20.9184 35.6839C21.0085 35.7212 21.0967 35.7643 21.1849 35.8152L23.1617 36.9574C23.2597 37.0142 23.3302 37.1063 23.3596 37.216L23.3674 37.2435L24.7918 42.5549C24.9093 42.9898 25.3011 43.2759 25.7302 43.2759C25.9105 43.2759 26.0966 43.2269 26.267 43.1152C26.3082 43.0878 26.3474 43.0564 26.3826 43.0212C26.5962 42.8096 26.7118 42.4589 26.6843 42.1532C26.6804 42.1023 26.6706 42.0533 26.6589 42.0063L25.9634 39.4143C25.9555 39.3829 25.9516 39.3496 25.9496 39.3202C25.9496 39.3143 25.9496 39.3065 25.9496 39.3006C25.9496 39.2712 25.9516 39.2419 25.9594 39.2144C25.9594 39.2105 25.9614 39.2066 25.9634 39.2027C25.9692 39.1772 25.979 39.1537 25.9888 39.1302C25.9908 39.1243 25.9927 39.1204 25.9947 39.1145C26.0065 39.089 26.0221 39.0655 26.0398 39.044C26.0437 39.0401 26.0476 39.0361 26.0515 39.0303C26.0672 39.0107 26.0868 38.993 26.1064 38.9774C26.1083 38.9754 26.1123 38.9734 26.1142 38.9715C26.1358 38.9539 26.1593 38.9401 26.1847 38.9264C26.1906 38.9245 26.1965 38.9205 26.2024 38.9186C26.2278 38.9068 26.2533 38.897 26.2807 38.8892C26.2807 38.8892 26.2827 38.8892 26.2847 38.8892C26.3121 38.8833 26.3395 38.8794 26.367 38.8794C26.3709 38.8794 26.3748 38.8794 26.3787 38.8794C26.3807 38.8794 26.3846 38.8794 26.3865 38.8794C26.4179 38.8794 26.4473 38.8833 26.4786 38.8912C26.4845 38.8912 26.4904 38.8951 26.4943 38.8951C26.5276 38.9049 26.559 38.9166 26.5903 38.9362L28.4143 39.9903C28.5671 40.0784 28.7356 40.1215 28.9002 40.1215C28.9903 40.1215 29.0804 40.1098 29.1666 40.0843C29.2529 40.0608 29.3351 40.0236 29.4115 39.9766C29.5271 39.906 29.629 39.81 29.7074 39.6925C29.7348 39.6533 29.7583 39.6102 29.7799 39.5671C29.8916 39.3339 29.8916 39.0753 29.8093 38.8422C29.7446 38.6619 29.6251 38.4974 29.4703 38.372C29.4272 38.3367 29.3822 38.3034 29.3332 38.274L27.564 37.2533C27.3583 37.1357 27.3074 36.8986 27.3877 36.7145C27.4347 36.6028 27.5307 36.5107 27.6679 36.4755L28.6612 36.209L30.3049 35.7682C30.3402 35.7584 30.3735 35.7486 30.4049 35.7349C30.5028 35.6977 30.591 35.6448 30.6694 35.5821C30.7732 35.4978 30.8574 35.392 30.9182 35.2745C30.9476 35.2157 30.973 35.153 30.9907 35.0903C31.0083 35.0257 31.0201 34.961 31.024 34.8924C31.0338 34.7572 31.0142 34.6181 30.9613 34.481L30.9495 34.4771Z" fill="#FB7712"/>
<path d="M32.6599 8.85853L18.4008 0.384983C17.5368 -0.128328 16.4612 -0.128328 15.5972 0.384983L1.34205 8.85853C0.511352 9.35225 0 10.2496 0 11.2155V30.4901L4.1202 31.5951C5.78553 32.0418 7.56056 31.8086 9.05347 30.9466L14.1552 28.0019C15.0192 27.5043 16.0047 27.2378 17 27.2378C17.9953 27.2378 18.9808 27.5023 19.8448 28.0019L24.9426 30.9466C26.4355 31.8086 28.2106 32.0418 29.8759 31.5951L34 30.4901V11.2174C34 10.2496 33.4906 9.35421 32.6579 8.86049L32.6599 8.85853ZM16.2281 23.0961C16.2281 23.6329 15.7931 24.0659 15.2583 24.0659H10.4759C9.93903 24.0659 9.50605 23.6309 9.50605 23.0961V18.3136C9.50605 17.7768 9.94099 17.3438 10.4759 17.3438H15.2583C15.7951 17.3438 16.2281 17.7788 16.2281 18.3136V23.0961ZM16.2281 14.9967C16.2281 15.5335 15.7931 15.9665 15.2583 15.9665H10.4759C9.93903 15.9665 9.50605 15.5316 9.50605 14.9967V10.2143C9.50605 9.67748 9.94099 9.2445 10.4759 9.2445H15.2583C15.7951 9.2445 16.2281 9.67944 16.2281 10.2143V14.9967ZM24.4567 23.0961C24.4567 23.6329 24.0218 24.0659 23.4869 24.0659H18.7045C18.1677 24.0659 17.7347 23.6309 17.7347 23.0961V18.3136C17.7347 17.7768 18.1696 17.3438 18.7045 17.3438H23.4869C24.0237 17.3438 24.4567 17.7788 24.4567 18.3136V23.0961ZM24.5292 14.3228C24.5057 14.3698 24.4802 14.4129 24.4567 14.4579C24.0864 15.1593 23.6006 15.6472 23.0716 15.9685C22.5857 16.2643 22.0645 16.423 21.5649 16.4818C21.9039 16.4289 22.2565 16.2859 22.5308 15.9685C22.6582 15.8196 22.7699 15.6354 22.8541 15.3984C23.6691 13.1022 21.0458 11.5818 21.0458 11.5818C21.4356 13.0238 20.0564 13.0199 19.5156 14.0465C19.163 14.7146 19.3217 15.4787 19.739 15.9685C19.9623 16.231 20.2582 16.4152 20.5932 16.4622C20.7107 16.4779 20.8812 16.5014 21.0751 16.5092C20.8714 16.5092 20.6735 16.4935 20.4893 16.4661C20.0701 16.4015 19.594 16.2428 19.1492 15.9704C18.5478 15.6021 18.0031 15.0222 17.7288 14.1758C17.6936 14.0641 17.6603 13.9485 17.6348 13.829C17.4741 13.0904 17.5368 12.4419 17.7288 11.8718C18.1128 10.7276 19.0219 9.89103 19.7194 9.24841C19.8644 9.11519 19.9995 8.9898 20.1191 8.87421C21.7785 7.24611 20.7695 6.09018 20.7695 6.09018C20.7695 6.09018 23.1793 6.95615 23.0226 9.18376C23.0226 9.20531 23.0187 9.22686 23.0167 9.24841C22.9579 9.84793 22.6562 10.7296 23.1617 11.284C23.7318 11.911 24.2157 11.4662 24.4548 11.1469C24.5566 11.0097 24.6135 10.8961 24.6135 10.8961C24.6135 10.8961 25.4794 12.3714 24.5273 14.3267L24.5292 14.3228Z" fill="#FB8B01"/>
</svg>
