<svg width="34" height="47" viewBox="0 0 34 47" fill="none" xmlns="http://www.w3.org/2000/svg">
<path d="M30.9496 34.4771C30.9281 34.4222 30.9026 34.3713 30.8732 34.3243C30.8634 34.3086 30.8536 34.2949 30.8419 34.2812C30.8203 34.2498 30.7968 34.2185 30.7694 34.191C30.7557 34.1754 30.742 34.1616 30.7283 34.1479C30.7008 34.1225 30.6734 34.0989 30.644 34.0754C30.6283 34.0637 30.6146 34.0519 30.5989 34.0421C30.5617 34.0167 30.5245 33.9951 30.4853 33.9755C30.4755 33.9696 30.4657 33.9638 30.4559 33.9598C30.405 33.9363 30.3521 33.9187 30.2992 33.903C30.2855 33.8991 30.2698 33.8972 30.2561 33.8932C30.2149 33.8834 30.1758 33.8756 30.1327 33.8717C30.1131 33.8697 30.0935 33.8678 30.0739 33.8678C30.0347 33.8658 29.9955 33.8658 29.9544 33.8678C29.9387 33.8678 29.9211 33.8678 29.9054 33.8717C29.8486 33.8776 29.7937 33.8854 29.7389 33.9011L26.0066 34.9003L24.4529 35.3156C24.4196 35.3234 24.3863 35.3274 24.355 35.3293C24.3511 35.3293 24.3471 35.3293 24.3432 35.3293C24.3373 35.3293 24.3315 35.3274 24.3256 35.3274C24.3001 35.3274 24.2766 35.3235 24.2531 35.3176C24.2433 35.3156 24.2335 35.3137 24.2237 35.3117C24.1924 35.3019 24.161 35.2901 24.1316 35.2725L18.6145 32.0868C18.4127 31.9713 18.2031 31.8792 17.9876 31.8106C17.8014 31.7518 17.6134 31.7087 17.4233 31.6833C17.2862 31.6656 17.1471 31.6558 17.008 31.6558C16.8689 31.6558 16.7298 31.6656 16.5926 31.6833C16.3849 31.7107 16.1812 31.7577 15.9813 31.8243C15.7815 31.8909 15.5875 31.9791 15.3995 32.0868L9.88234 35.2725C9.85295 35.2901 9.82161 35.3019 9.79026 35.3117C9.78046 35.3137 9.77067 35.3156 9.76283 35.3176C9.73932 35.3235 9.71385 35.3254 9.69034 35.3274C9.68446 35.3274 9.67858 35.3293 9.67271 35.3293C9.66879 35.3293 9.66487 35.3293 9.66095 35.3293C9.62764 35.3293 9.59434 35.3254 9.56103 35.3156L8.48739 35.0276L4.2222 33.8854C4.18302 33.8756 4.14384 33.8678 4.10465 33.8619C4.0929 33.8619 4.08114 33.8599 4.06743 33.858C4.04 33.856 4.01257 33.854 3.9871 33.8521C3.97534 33.8521 3.96359 33.8521 3.95183 33.8521C3.9009 33.8521 3.85192 33.856 3.80293 33.8658C3.79706 33.8658 3.79118 33.8678 3.7853 33.8697C3.73828 33.8795 3.69322 33.8913 3.64816 33.9069C3.64228 33.9089 3.6364 33.9109 3.63053 33.9128C3.58546 33.9305 3.5404 33.952 3.4973 33.9755C3.48946 33.9794 3.47967 33.9853 3.47183 33.9892C3.43069 34.0147 3.38954 34.0421 3.35232 34.0735C3.34644 34.0794 3.34056 34.0833 3.33469 34.0892C3.29746 34.1205 3.26415 34.1538 3.23281 34.191C3.23085 34.1949 3.22693 34.1969 3.22497 34.1989C3.19362 34.2381 3.16424 34.2792 3.13877 34.3223C3.13289 34.3301 3.12897 34.338 3.12309 34.3478C3.09958 34.3909 3.07803 34.4379 3.0604 34.4849C3.05648 34.4927 3.05452 34.5025 3.05256 34.5104C3.03493 34.5613 3.02121 34.6142 3.01142 34.6691C2.99183 34.7945 2.9977 34.9179 3.02709 35.0354C3.07019 35.2118 3.16619 35.3705 3.2955 35.4998C3.34056 35.5448 3.38954 35.584 3.44048 35.6212C3.53061 35.6839 3.63053 35.731 3.73828 35.7643C3.75004 35.7682 3.76179 35.7741 3.77355 35.778L5.98549 36.3716L6.35774 36.4715C6.4028 36.4833 6.44394 36.5029 6.48117 36.5244C6.69864 36.6635 6.73978 36.9751 6.56541 37.1651C6.53602 37.1964 6.50076 37.2258 6.45961 37.2493L4.97062 38.1094L4.69045 38.2721C4.57878 38.3367 4.48082 38.4209 4.39853 38.517C4.19673 38.7579 4.10661 39.0812 4.1791 39.3829C4.19282 39.4437 4.21437 39.5044 4.2418 39.5632C4.26335 39.6082 4.28686 39.6494 4.31429 39.6886C4.34172 39.7277 4.36914 39.765 4.40049 39.8002C4.46319 39.8688 4.53372 39.9276 4.61013 39.9746C4.76294 40.0686 4.94123 40.1196 5.12148 40.1196C5.16262 40.1196 5.20376 40.1176 5.24491 40.1117C5.36834 40.0961 5.49177 40.0549 5.60736 39.9883L7.43138 38.9343C7.46273 38.9166 7.49603 38.9029 7.52738 38.8931C7.53326 38.8931 7.53913 38.8892 7.54305 38.8892C7.5744 38.8814 7.60575 38.8774 7.63514 38.8774C7.63709 38.8774 7.64101 38.8774 7.64297 38.8774C7.64689 38.8774 7.65081 38.8774 7.65473 38.8774C7.68216 38.8774 7.70959 38.8814 7.73701 38.8872C7.73701 38.8872 7.73897 38.8872 7.74093 38.8872C7.76836 38.8931 7.79383 38.9049 7.8193 38.9166C7.82518 38.9186 7.83106 38.9225 7.83693 38.9245C7.8624 38.9362 7.88591 38.9519 7.90746 38.9695C7.90942 38.9715 7.91334 38.9734 7.9153 38.9774C7.93489 38.993 7.95253 39.0107 7.9682 39.0303C7.97212 39.0342 7.97604 39.0381 7.97995 39.044C7.99759 39.0655 8.0113 39.089 8.02502 39.1125C8.02698 39.1184 8.02894 39.1223 8.03089 39.1282C8.04069 39.1517 8.05049 39.1752 8.05636 39.2007C8.05636 39.2046 8.05832 39.2085 8.06028 39.2125C8.06616 39.2399 8.06812 39.2693 8.07008 39.2987C8.07008 39.3045 8.07008 39.3124 8.07008 39.3183C8.07008 39.3496 8.0642 39.381 8.05636 39.4123L7.36085 42.0043C7.31578 42.1748 7.31383 42.3511 7.35105 42.5157C7.41375 42.7919 7.5842 43.0368 7.84673 43.1681C7.99367 43.2406 8.14453 43.2739 8.28951 43.2739C8.71857 43.2739 9.11237 42.9878 9.22797 42.5529L10.6229 37.3493L10.6582 37.216C10.6719 37.1612 10.6974 37.1102 10.7307 37.0671C10.764 37.024 10.8071 36.9868 10.8561 36.9574L12.8329 35.8152C12.9211 35.7643 13.0092 35.7212 13.0994 35.6839C13.1307 35.6722 13.162 35.6644 13.1914 35.6526C13.2502 35.631 13.3109 35.6095 13.3697 35.5938C13.4069 35.584 13.4442 35.5801 13.4814 35.5723C13.5363 35.5605 13.5892 35.5488 13.644 35.5429C13.6832 35.539 13.7224 35.537 13.7616 35.535C13.8066 35.5311 13.8536 35.5272 13.8987 35.5272C13.9065 35.5272 13.9124 35.5272 13.9203 35.5272C13.9398 35.5272 13.9594 35.5292 13.981 35.5311C14.0437 35.5331 14.1083 35.539 14.171 35.5468C14.1965 35.5507 14.222 35.5546 14.2474 35.5586C14.3101 35.5684 14.3709 35.5821 14.4316 35.5977C14.4512 35.6036 14.4708 35.6075 14.4904 35.6115C14.5688 35.635 14.6452 35.6604 14.7196 35.6918C14.7353 35.6977 14.751 35.7055 14.7647 35.7133C14.8235 35.7388 14.8822 35.7682 14.939 35.7995C14.9606 35.8113 14.9821 35.825 15.0037 35.8387C15.0566 35.8701 15.1075 35.9034 15.1565 35.9406C15.1741 35.9524 15.1918 35.9661 15.2094 35.9778C15.2741 36.0268 15.3348 36.0797 15.3936 36.1365C15.4034 36.1463 15.4112 36.1561 15.419 36.1639C15.468 36.2129 15.515 36.2639 15.5582 36.3187C15.5679 36.3305 15.5777 36.3422 15.5875 36.354C15.5934 36.3618 15.5993 36.3716 15.6052 36.3795C15.6424 36.4284 15.6777 36.4774 15.709 36.5303C15.7208 36.5499 15.7345 36.5695 15.7462 36.5891C15.7874 36.6616 15.8266 36.7341 15.8599 36.8124C15.8638 36.8203 15.8657 36.8281 15.8677 36.836C15.8971 36.9065 15.9226 36.979 15.9441 37.0534C15.952 37.0789 15.9578 37.1044 15.9637 37.1298C15.9794 37.1906 15.9931 37.2533 16.0029 37.3179C16.0068 37.3434 16.0127 37.3708 16.0146 37.3963C16.0264 37.4845 16.0323 37.5746 16.0323 37.6686V39.9511C16.0323 39.9785 16.0303 40.0079 16.0244 40.0353C16.0127 40.0902 15.9911 40.1411 15.9617 40.1882C15.9461 40.2117 15.9284 40.2332 15.9088 40.2528L12.0394 44.1222C11.6789 44.4827 11.6104 45.0685 11.9317 45.4623C11.9767 45.5172 12.0257 45.5642 12.0766 45.6053C12.0806 45.6073 12.0825 45.6112 12.0864 45.6151C12.1354 45.6543 12.1903 45.6876 12.2451 45.7151C12.251 45.719 12.2569 45.7229 12.2647 45.7249C12.3196 45.7503 12.3744 45.7719 12.4313 45.7856C12.4391 45.7875 12.4469 45.7895 12.4567 45.7915C12.5135 45.8052 12.5704 45.813 12.6272 45.8169C12.637 45.8169 12.6448 45.8169 12.6546 45.8169C12.6938 45.8169 12.7349 45.813 12.7741 45.8111C12.8016 45.8091 12.829 45.8071 12.8545 45.8032C12.8917 45.7973 12.9289 45.7856 12.9681 45.7738C12.9936 45.766 13.0171 45.7621 13.0425 45.7523C13.0837 45.7366 13.1209 45.7151 13.1601 45.6935C13.1797 45.6837 13.1993 45.6759 13.2189 45.6622C13.2757 45.6249 13.3286 45.5838 13.3776 45.5348L15.3074 43.605C15.3368 43.5756 15.3701 43.5521 15.4034 43.5345C15.4112 43.5306 15.419 43.5266 15.4269 43.5227C15.4602 43.507 15.4955 43.4933 15.5307 43.4874C15.5346 43.4874 15.5386 43.4874 15.5425 43.4874C15.5621 43.4835 15.5836 43.4816 15.6052 43.4816C15.6169 43.4816 15.6287 43.4835 15.6404 43.4855C15.6502 43.4855 15.6581 43.4855 15.6679 43.4874C15.7031 43.4933 15.7364 43.5012 15.7697 43.5149C15.7737 43.5149 15.7776 43.5188 15.7815 43.5208C15.8109 43.5345 15.8383 43.5501 15.8638 43.5678C15.8716 43.5737 15.8775 43.5776 15.8853 43.5834C15.9128 43.607 15.9382 43.6324 15.9598 43.6618C15.9598 43.6638 15.9617 43.6657 15.9637 43.6677C15.9833 43.6951 15.997 43.7265 16.0088 43.7598C16.0127 43.7696 16.0146 43.7774 16.0186 43.7872C16.0284 43.8244 16.0362 43.8636 16.0362 43.9067V45.958C16.0362 46.4674 16.4026 46.9298 16.908 46.9807C16.9433 46.9846 16.9766 46.9846 17.0099 46.9846C17.0726 46.9846 17.1314 46.9768 17.1902 46.967C17.196 46.967 17.2019 46.967 17.2078 46.9631C17.2646 46.9513 17.3175 46.9337 17.3704 46.9121C17.3783 46.9082 17.3861 46.9063 17.392 46.9023C17.4429 46.8808 17.4899 46.8534 17.5369 46.824C17.5448 46.8201 17.5507 46.8142 17.5585 46.8103C17.6036 46.7789 17.6447 46.7456 17.6839 46.7064C17.6898 46.7005 17.6956 46.6947 17.7035 46.6868C17.7407 46.6476 17.776 46.6065 17.8073 46.5614C17.8112 46.5556 17.8171 46.5477 17.821 46.5399C17.8504 46.4929 17.8778 46.4458 17.8994 46.3949C17.9014 46.389 17.9053 46.3812 17.9072 46.3753C17.9288 46.3224 17.9464 46.2676 17.9582 46.2088C17.9582 46.2049 17.9582 46.199 17.9601 46.1951C17.9719 46.1343 17.9797 46.0716 17.9797 46.0089V43.9028C17.9797 43.8597 17.9876 43.8205 17.9974 43.7833C17.9993 43.7735 18.0032 43.7637 18.0072 43.7559C18.0189 43.7226 18.0346 43.6912 18.0522 43.6638C18.0522 43.6618 18.0542 43.6599 18.0561 43.6579C18.0777 43.6285 18.1032 43.603 18.1306 43.5795C18.1384 43.5737 18.1443 43.5678 18.1521 43.5639C18.1776 43.5443 18.205 43.5286 18.2344 43.5168C18.2383 43.5168 18.2423 43.5129 18.2462 43.511C18.2795 43.4972 18.3128 43.4894 18.3481 43.4835C18.3579 43.4835 18.3657 43.4835 18.3755 43.4816C18.3872 43.4816 18.399 43.4777 18.4108 43.4777C18.4303 43.4777 18.4519 43.4796 18.4734 43.4835C18.4774 43.4835 18.4813 43.4835 18.4852 43.4835C18.5205 43.4894 18.5557 43.5031 18.589 43.5188C18.5969 43.5227 18.6047 43.5266 18.6125 43.5306C18.6459 43.5501 18.6792 43.5717 18.7085 43.6011L20.6384 45.5309C20.6854 45.5779 20.7363 45.6191 20.7912 45.6563C20.8989 45.7268 21.0184 45.7758 21.1399 45.7993C21.2007 45.8111 21.2633 45.8169 21.326 45.8169C21.5474 45.8169 21.7688 45.7425 21.9471 45.5916C22.3958 45.2194 22.3742 44.516 21.9628 44.1046L18.1051 40.2469C18.0248 40.1666 17.9797 40.0588 17.9797 39.9452V37.6627C17.9797 37.5707 17.9876 37.4805 17.9974 37.3904C18.0013 37.363 18.0052 37.3375 18.0091 37.312C18.0189 37.2474 18.0326 37.1867 18.0483 37.124C18.0542 37.0985 18.062 37.073 18.0679 37.0475C18.0894 36.9731 18.1149 36.9006 18.1443 36.832C18.1482 36.8242 18.1502 36.8164 18.1541 36.8085C18.1874 36.7321 18.2266 36.6577 18.2677 36.5871C18.2795 36.5656 18.2932 36.546 18.3069 36.5264C18.3402 36.4755 18.3735 36.4245 18.4108 36.3775C18.4225 36.3618 18.4323 36.3462 18.4441 36.3324C18.448 36.3266 18.4539 36.3226 18.4578 36.3168C18.5009 36.2639 18.5479 36.2129 18.5949 36.1639C18.6047 36.1542 18.6125 36.1444 18.6223 36.1346C18.6811 36.0777 18.7419 36.0248 18.8065 35.9759C18.8241 35.9622 18.8418 35.9504 18.8614 35.9367C18.9103 35.9014 18.9613 35.8681 19.0122 35.8368C19.0338 35.823 19.0573 35.8093 19.0788 35.7976C19.1357 35.7662 19.1925 35.7368 19.2512 35.7114C19.2669 35.7035 19.2826 35.6957 19.2983 35.6898C19.3727 35.6585 19.4491 35.633 19.5275 35.6095C19.5471 35.6036 19.5667 35.5997 19.5863 35.5938C19.647 35.5781 19.7077 35.5644 19.7685 35.5546C19.7939 35.5507 19.8194 35.5468 19.8468 35.5429C19.9095 35.535 19.9722 35.5292 20.0369 35.5272C20.0565 35.5272 20.0761 35.5252 20.0976 35.5233C20.1055 35.5233 20.1113 35.5233 20.1192 35.5233C20.1642 35.5233 20.2093 35.5292 20.2563 35.5311C20.2955 35.5331 20.3347 35.5331 20.3739 35.539C20.4287 35.5448 20.4836 35.5586 20.5384 35.5703C20.5757 35.5781 20.6109 35.5821 20.6482 35.5919C20.7089 35.6075 20.7696 35.6291 20.8284 35.6526C20.8578 35.6644 20.8891 35.6702 20.9185 35.6839C21.0087 35.7212 21.0968 35.7643 21.185 35.8152L23.1618 36.9574C23.2598 37.0142 23.3303 37.1063 23.3597 37.216L23.3675 37.2435L24.7919 42.5549C24.9094 42.9898 25.3013 43.2759 25.7303 43.2759C25.9106 43.2759 26.0967 43.2269 26.2672 43.1152C26.3083 43.0878 26.3475 43.0564 26.3827 43.0212C26.5963 42.8096 26.7119 42.4589 26.6845 42.1532C26.6805 42.1023 26.6707 42.0533 26.659 42.0063L25.9635 39.4143C25.9556 39.3829 25.9517 39.3496 25.9498 39.3202C25.9498 39.3143 25.9498 39.3065 25.9498 39.3006C25.9498 39.2712 25.9517 39.2419 25.9596 39.2144C25.9596 39.2105 25.9615 39.2066 25.9635 39.2027C25.9694 39.1772 25.9791 39.1537 25.9889 39.1302C25.9909 39.1243 25.9929 39.1204 25.9948 39.1145C26.0066 39.089 26.0223 39.0655 26.0399 39.044C26.0438 39.0401 26.0477 39.0361 26.0516 39.0303C26.0673 39.0107 26.0869 38.993 26.1065 38.9774C26.1085 38.9754 26.1124 38.9734 26.1143 38.9715C26.1359 38.9539 26.1594 38.9401 26.1849 38.9264C26.1907 38.9245 26.1966 38.9205 26.2025 38.9186C26.228 38.9068 26.2534 38.897 26.2809 38.8892C26.2809 38.8892 26.2828 38.8892 26.2848 38.8892C26.3122 38.8833 26.3396 38.8794 26.3671 38.8794C26.371 38.8794 26.3749 38.8794 26.3788 38.8794C26.3808 38.8794 26.3847 38.8794 26.3867 38.8794C26.418 38.8794 26.4474 38.8833 26.4787 38.8912C26.4846 38.8912 26.4905 38.8951 26.4944 38.8951C26.5277 38.9049 26.5591 38.9166 26.5904 38.9362L28.4144 39.9903C28.5673 40.0784 28.7357 40.1215 28.9003 40.1215C28.9904 40.1215 29.0806 40.1098 29.1668 40.0843C29.253 40.0608 29.3353 40.0236 29.4117 39.9766C29.5273 39.906 29.6291 39.81 29.7075 39.6925C29.7349 39.6533 29.7585 39.6102 29.78 39.5671C29.8917 39.3339 29.8917 39.0753 29.8094 38.8422C29.7447 38.6619 29.6252 38.4974 29.4704 38.372C29.4273 38.3367 29.3823 38.3034 29.3333 38.274L27.5641 37.2533C27.3584 37.1357 27.3075 36.8986 27.3878 36.7145C27.4348 36.6028 27.5308 36.5107 27.668 36.4755L28.6613 36.209L30.3051 35.7682C30.3403 35.7584 30.3736 35.7486 30.405 35.7349C30.5029 35.6977 30.5911 35.6448 30.6695 35.5821C30.7733 35.4978 30.8576 35.392 30.9183 35.2745C30.9477 35.2157 30.9732 35.153 30.9908 35.0903C31.0084 35.0257 31.0202 34.961 31.0241 34.8924C31.0339 34.7572 31.0143 34.6181 30.9614 34.481L30.9496 34.4771Z" fill="#FB7712"/>
<path d="M32.6599 8.85853L18.4008 0.384983C17.5368 -0.128328 16.4612 -0.128328 15.5972 0.384983L1.34205 8.85853C0.511352 9.35225 0 10.2496 0 11.2155V30.4901L4.1202 31.5951C5.78553 32.0418 7.56056 31.8086 9.05348 30.9466L14.1552 28.0019C15.0192 27.5043 16.0047 27.2378 17 27.2378C17.9953 27.2378 18.9808 27.5023 19.8448 28.0019L24.9426 30.9466C26.4355 31.8086 28.2106 32.0418 29.8759 31.5951L34 30.4901V11.2174C34 10.2496 33.4906 9.35421 32.6579 8.86049L32.6599 8.85853ZM16.2281 23.0961C16.2281 23.6329 15.7931 24.0659 15.2583 24.0659H10.4759C9.93904 24.0659 9.50605 23.6309 9.50605 23.0961V18.3136C9.50605 17.7768 9.94099 17.3438 10.4759 17.3438H15.2583C15.7951 17.3438 16.2281 17.7788 16.2281 18.3136V23.0961ZM16.2281 14.9967C16.2281 15.5335 15.7931 15.9665 15.2583 15.9665H10.4759C9.93904 15.9665 9.50605 15.5316 9.50605 14.9967V10.2143C9.50605 9.67748 9.94099 9.2445 10.4759 9.2445H15.2583C15.7951 9.2445 16.2281 9.67944 16.2281 10.2143V14.9967ZM24.4567 23.0961C24.4567 23.6329 24.0218 24.0659 23.4869 24.0659H18.7045C18.1677 24.0659 17.7347 23.6309 17.7347 23.0961V18.3136C17.7347 17.7768 18.1696 17.3438 18.7045 17.3438H23.4869C24.0237 17.3438 24.4567 17.7788 24.4567 18.3136V23.0961ZM24.5292 14.3228C24.5057 14.3698 24.4802 14.4129 24.4567 14.4579C24.0864 15.1593 23.6006 15.6472 23.0716 15.9685C22.5857 16.2643 22.0645 16.423 21.5649 16.4818C21.9039 16.4289 22.2565 16.2859 22.5308 15.9685C22.6582 15.8196 22.7699 15.6354 22.8541 15.3984C23.6691 13.1022 21.0458 11.5818 21.0458 11.5818C21.4356 13.0238 20.0564 13.0199 19.5156 14.0465C19.163 14.7146 19.3217 15.4787 19.739 15.9685C19.9623 16.231 20.2582 16.4152 20.5932 16.4622C20.7107 16.4779 20.8812 16.5014 21.0751 16.5092C20.8714 16.5092 20.6735 16.4935 20.4893 16.4661C20.0701 16.4015 19.594 16.2428 19.1492 15.9704C18.5478 15.6021 18.0031 15.0222 17.7288 14.1758C17.6936 14.0641 17.6603 13.9485 17.6348 13.829C17.4741 13.0904 17.5368 12.4419 17.7288 11.8718C18.1128 10.7276 19.0219 9.89103 19.7194 9.24841C19.8644 9.11519 19.9995 8.9898 20.1191 8.87421C21.7785 7.24611 20.7695 6.09018 20.7695 6.09018C20.7695 6.09018 23.1793 6.95615 23.0226 9.18376C23.0226 9.20531 23.0187 9.22686 23.0167 9.24841C22.9579 9.84793 22.6562 10.7296 23.1617 11.284C23.7318 11.911 24.2157 11.4662 24.4548 11.1469C24.5566 11.0097 24.6135 10.8961 24.6135 10.8961C24.6135 10.8961 25.4794 12.3714 24.5273 14.3267L24.5292 14.3228Z" fill="white"/>
</svg>
